<mxfile host="app.diagrams.net" modified="2024-02-19T12:12:22.671Z" agent="Mozilla/5.0 (Windows NT 10.0; Win64; x64) AppleWebKit/537.36 (KHTML, like Gecko) Chrome/121.0.0.0 Safari/537.36" etag="f4SPabBvL6oC3b3OF8XS" version="23.1.5" type="device">
  <diagram name="Page-1" id="e7e014a7-5840-1c2e-5031-d8a46d1fe8dd">
    <mxGraphModel dx="838" dy="446" grid="1" gridSize="10" guides="1" tooltips="1" connect="1" arrows="1" fold="1" page="1" pageScale="1" pageWidth="1169" pageHeight="826" background="none" math="0" shadow="0">
      <root>
        <mxCell id="0" />
        <mxCell id="1" parent="0" />
        <mxCell id="qAhr7touPCSqE8SBAthT-41" value="User" style="swimlane;whiteSpace=wrap" parent="1" vertex="1">
          <mxGeometry x="20" y="10" width="1090" height="800" as="geometry" />
        </mxCell>
        <mxCell id="qAhr7touPCSqE8SBAthT-42" value="" style="ellipse;shape=startState;fillColor=#000000;strokeColor=#ff0000;" parent="qAhr7touPCSqE8SBAthT-41" vertex="1">
          <mxGeometry x="100" y="30" width="30" height="30" as="geometry" />
        </mxCell>
        <mxCell id="qAhr7touPCSqE8SBAthT-43" value="" style="edgeStyle=elbowEdgeStyle;elbow=horizontal;verticalAlign=bottom;endArrow=open;endSize=8;strokeColor=#000000;endFill=1;rounded=0;entryX=0.5;entryY=0;entryDx=0;entryDy=0;" parent="qAhr7touPCSqE8SBAthT-41" source="qAhr7touPCSqE8SBAthT-42" target="qAhr7touPCSqE8SBAthT-44" edge="1">
          <mxGeometry x="100" y="40" as="geometry">
            <mxPoint x="115.5" y="85" as="targetPoint" />
          </mxGeometry>
        </mxCell>
        <mxCell id="qAhr7touPCSqE8SBAthT-44" value="Regristasi" style="rounded=1;" parent="qAhr7touPCSqE8SBAthT-41" vertex="1">
          <mxGeometry x="60" y="90" width="110" height="30" as="geometry" />
        </mxCell>
        <mxCell id="qAhr7touPCSqE8SBAthT-45" value="Input username, password,&#xa;email, nama lengkap,&#xa;alamat" style="rounded=1;" parent="qAhr7touPCSqE8SBAthT-41" vertex="1">
          <mxGeometry x="20" y="134" width="150" height="50" as="geometry" />
        </mxCell>
        <mxCell id="qAhr7touPCSqE8SBAthT-47" value="Mencari data buku" style="rounded=1;" parent="qAhr7touPCSqE8SBAthT-41" vertex="1">
          <mxGeometry x="35" y="330" width="160" height="30" as="geometry" />
        </mxCell>
        <mxCell id="qAhr7touPCSqE8SBAthT-48" value="Mengklik menu ulasan" style="rounded=1;" parent="qAhr7touPCSqE8SBAthT-41" vertex="1">
          <mxGeometry x="25.5" y="540" width="160" height="30" as="geometry" />
        </mxCell>
        <mxCell id="qAhr7touPCSqE8SBAthT-49" value="Memberi ulasan" style="rounded=1;" parent="qAhr7touPCSqE8SBAthT-41" vertex="1">
          <mxGeometry x="25.5" y="663" width="160" height="30" as="geometry" />
        </mxCell>
        <mxCell id="qAhr7touPCSqE8SBAthT-50" value="" style="edgeStyle=orthogonalEdgeStyle;rounded=0;orthogonalLoop=1;jettySize=auto;html=1;" parent="qAhr7touPCSqE8SBAthT-41" source="qAhr7touPCSqE8SBAthT-51" target="qAhr7touPCSqE8SBAthT-52" edge="1">
          <mxGeometry relative="1" as="geometry" />
        </mxCell>
        <mxCell id="qAhr7touPCSqE8SBAthT-51" value="Logout" style="rounded=1;" parent="qAhr7touPCSqE8SBAthT-41" vertex="1">
          <mxGeometry x="130" y="707" width="95.5" height="30" as="geometry" />
        </mxCell>
        <mxCell id="qAhr7touPCSqE8SBAthT-52" value="" style="ellipse;html=1;shape=endState;fillColor=#000000;strokeColor=#ff0000;" parent="qAhr7touPCSqE8SBAthT-41" vertex="1">
          <mxGeometry x="162.75" y="758" width="30" height="30" as="geometry" />
        </mxCell>
        <mxCell id="pdXvo2BmUZ1ASP95Pkos-23" value="Input username &amp; password" style="rounded=1;" parent="qAhr7touPCSqE8SBAthT-41" vertex="1">
          <mxGeometry x="25.5" y="224.5" width="150" height="30" as="geometry" />
        </mxCell>
        <mxCell id="pdXvo2BmUZ1ASP95Pkos-26" value="Melakukan peminjaman" style="rounded=1;" parent="qAhr7touPCSqE8SBAthT-41" vertex="1">
          <mxGeometry x="45.5" y="394" width="160" height="30" as="geometry" />
        </mxCell>
        <mxCell id="qAhr7touPCSqE8SBAthT-53" value="Sistem" style="swimlane;whiteSpace=wrap" parent="qAhr7touPCSqE8SBAthT-41" vertex="1">
          <mxGeometry x="350" width="740" height="800" as="geometry" />
        </mxCell>
        <mxCell id="qAhr7touPCSqE8SBAthT-54" value="Menampilkan menu regristasi" style="rounded=1;" parent="qAhr7touPCSqE8SBAthT-53" vertex="1">
          <mxGeometry x="20" y="90" width="170" height="30" as="geometry" />
        </mxCell>
        <mxCell id="qAhr7touPCSqE8SBAthT-55" value="Verifikasi username&#xa;&amp; password" style="rounded=1;" parent="qAhr7touPCSqE8SBAthT-53" vertex="1">
          <mxGeometry x="35.5" y="250" width="110" height="50" as="geometry" />
        </mxCell>
        <mxCell id="qAhr7touPCSqE8SBAthT-56" value="" style="rhombus;" parent="qAhr7touPCSqE8SBAthT-53" vertex="1">
          <mxGeometry x="195.5" y="255" width="80" height="40" as="geometry" />
        </mxCell>
        <mxCell id="qAhr7touPCSqE8SBAthT-57" value="No" style="edgeStyle=elbowEdgeStyle;elbow=horizontal;align=left;verticalAlign=bottom;endArrow=open;endSize=8;strokeColor=#000000;exitX=1;exitY=0.5;endFill=1;rounded=0;entryX=0;entryY=0.5;entryDx=0;entryDy=0;exitDx=0;exitDy=0;" parent="qAhr7touPCSqE8SBAthT-53" source="qAhr7touPCSqE8SBAthT-56" target="qAhr7touPCSqE8SBAthT-61" edge="1">
          <mxGeometry x="-1" relative="1" as="geometry">
            <mxPoint x="155" y="147.5" as="targetPoint" />
            <Array as="points" />
          </mxGeometry>
        </mxCell>
        <mxCell id="qAhr7touPCSqE8SBAthT-58" value="Yes" style="edgeStyle=elbowEdgeStyle;elbow=horizontal;align=left;verticalAlign=top;endArrow=open;endSize=8;strokeColor=#000000;endFill=1;rounded=0" parent="qAhr7touPCSqE8SBAthT-53" source="qAhr7touPCSqE8SBAthT-56" target="qAhr7touPCSqE8SBAthT-60" edge="1">
          <mxGeometry x="-1" relative="1" as="geometry">
            <mxPoint x="190" y="305" as="targetPoint" />
          </mxGeometry>
        </mxCell>
        <mxCell id="qAhr7touPCSqE8SBAthT-59" value="" style="endArrow=open;strokeColor=#000000;endFill=1;rounded=0" parent="qAhr7touPCSqE8SBAthT-53" source="qAhr7touPCSqE8SBAthT-55" target="qAhr7touPCSqE8SBAthT-56" edge="1">
          <mxGeometry relative="1" as="geometry" />
        </mxCell>
        <mxCell id="qAhr7touPCSqE8SBAthT-60" value="Menampilkan menu user" style="rounded=1;" parent="qAhr7touPCSqE8SBAthT-53" vertex="1">
          <mxGeometry x="155.5" y="338" width="160" height="35" as="geometry" />
        </mxCell>
        <mxCell id="qAhr7touPCSqE8SBAthT-61" value="Password &amp; username&#xa;salah" style="rounded=1;" parent="qAhr7touPCSqE8SBAthT-53" vertex="1">
          <mxGeometry x="465.5" y="250" width="124.5" height="50" as="geometry" />
        </mxCell>
        <mxCell id="qAhr7touPCSqE8SBAthT-62" value="" style="endArrow=open;strokeColor=#000000;endFill=1;rounded=0;entryX=1;entryY=0.5;entryDx=0;entryDy=0;exitX=0.5;exitY=0;exitDx=0;exitDy=0;" parent="qAhr7touPCSqE8SBAthT-53" source="qAhr7touPCSqE8SBAthT-61" target="pdXvo2BmUZ1ASP95Pkos-21" edge="1">
          <mxGeometry relative="1" as="geometry">
            <mxPoint x="-154.5" y="230" as="sourcePoint" />
            <mxPoint x="30.5" y="255" as="targetPoint" />
            <Array as="points">
              <mxPoint x="527.5" y="210" />
            </Array>
          </mxGeometry>
        </mxCell>
        <mxCell id="qAhr7touPCSqE8SBAthT-63" value="Menampilkan data buku" style="rounded=1;" parent="qAhr7touPCSqE8SBAthT-53" vertex="1">
          <mxGeometry x="365.5" y="362" width="160" height="35" as="geometry" />
        </mxCell>
        <mxCell id="qAhr7touPCSqE8SBAthT-64" value="Menyimpan data peminjaman" style="rounded=1;" parent="qAhr7touPCSqE8SBAthT-53" vertex="1">
          <mxGeometry x="261" y="490" width="204.5" height="35" as="geometry" />
        </mxCell>
        <mxCell id="qAhr7touPCSqE8SBAthT-66" value="Menampilkan menu ulasan" style="rounded=1;" parent="qAhr7touPCSqE8SBAthT-53" vertex="1">
          <mxGeometry x="260" y="584" width="194.5" height="35" as="geometry" />
        </mxCell>
        <mxCell id="qAhr7touPCSqE8SBAthT-69" value="Menyimpan ulasan &amp; dimasukkan&#xa;ke laporan" style="rounded=1;" parent="qAhr7touPCSqE8SBAthT-53" vertex="1">
          <mxGeometry x="380" y="703" width="204.5" height="35" as="geometry" />
        </mxCell>
        <mxCell id="pdXvo2BmUZ1ASP95Pkos-20" value="Menyimpan data" style="rounded=1;" parent="qAhr7touPCSqE8SBAthT-53" vertex="1">
          <mxGeometry x="25.5" y="195" width="170" height="30" as="geometry" />
        </mxCell>
        <mxCell id="pdXvo2BmUZ1ASP95Pkos-21" value="Menampilkan menu login" style="rounded=1;" parent="qAhr7touPCSqE8SBAthT-53" vertex="1">
          <mxGeometry x="260" y="192.5" width="160" height="35" as="geometry" />
        </mxCell>
        <mxCell id="pdXvo2BmUZ1ASP95Pkos-22" value="" style="endArrow=open;strokeColor=#000000;endFill=1;rounded=0;exitX=1;exitY=0.5;exitDx=0;exitDy=0;entryX=0;entryY=0.5;entryDx=0;entryDy=0;" parent="qAhr7touPCSqE8SBAthT-53" source="pdXvo2BmUZ1ASP95Pkos-20" target="pdXvo2BmUZ1ASP95Pkos-21" edge="1">
          <mxGeometry relative="1" as="geometry">
            <mxPoint x="-155" y="130" as="sourcePoint" />
            <mxPoint x="-154.5" y="150" as="targetPoint" />
          </mxGeometry>
        </mxCell>
        <mxCell id="pdXvo2BmUZ1ASP95Pkos-31" value="Menampilkan kembali menu user" style="rounded=1;" parent="qAhr7touPCSqE8SBAthT-53" vertex="1">
          <mxGeometry x="505.5" y="490" width="194.5" height="35" as="geometry" />
        </mxCell>
        <mxCell id="VFh-N_FICnZy8E7-UwGf-4" value="" style="endArrow=open;strokeColor=#000000;endFill=1;rounded=0;entryX=0;entryY=0.5;entryDx=0;entryDy=0;exitX=1;exitY=0.5;exitDx=0;exitDy=0;" edge="1" parent="qAhr7touPCSqE8SBAthT-53" source="qAhr7touPCSqE8SBAthT-64" target="pdXvo2BmUZ1ASP95Pkos-31">
          <mxGeometry relative="1" as="geometry">
            <mxPoint x="156" y="285" as="sourcePoint" />
            <mxPoint x="206" y="285" as="targetPoint" />
          </mxGeometry>
        </mxCell>
        <mxCell id="qAhr7touPCSqE8SBAthT-70" value="" style="endArrow=open;strokeColor=#000000;endFill=1;rounded=0;exitX=1;exitY=0.5;exitDx=0;exitDy=0;entryX=0;entryY=0.5;entryDx=0;entryDy=0;" parent="qAhr7touPCSqE8SBAthT-41" source="qAhr7touPCSqE8SBAthT-44" target="qAhr7touPCSqE8SBAthT-54" edge="1">
          <mxGeometry relative="1" as="geometry">
            <mxPoint x="279.5" y="210" as="sourcePoint" />
            <mxPoint x="279.5" y="270" as="targetPoint" />
          </mxGeometry>
        </mxCell>
        <mxCell id="qAhr7touPCSqE8SBAthT-71" value="" style="endArrow=open;strokeColor=#000000;endFill=1;rounded=0;entryX=1;entryY=0.5;entryDx=0;entryDy=0;" parent="qAhr7touPCSqE8SBAthT-41" source="qAhr7touPCSqE8SBAthT-54" target="qAhr7touPCSqE8SBAthT-45" edge="1">
          <mxGeometry relative="1" as="geometry">
            <Array as="points">
              <mxPoint x="455" y="160" />
            </Array>
          </mxGeometry>
        </mxCell>
        <mxCell id="pdXvo2BmUZ1ASP95Pkos-25" value="" style="endArrow=open;strokeColor=#000000;endFill=1;rounded=0;entryX=0;entryY=0.5;entryDx=0;entryDy=0;exitX=0.5;exitY=1;exitDx=0;exitDy=0;" parent="qAhr7touPCSqE8SBAthT-41" source="pdXvo2BmUZ1ASP95Pkos-23" target="qAhr7touPCSqE8SBAthT-55" edge="1">
          <mxGeometry relative="1" as="geometry">
            <Array as="points">
              <mxPoint x="101" y="275" />
            </Array>
            <mxPoint x="260" y="200" as="sourcePoint" />
            <mxPoint x="470" y="220" as="targetPoint" />
          </mxGeometry>
        </mxCell>
        <mxCell id="qAhr7touPCSqE8SBAthT-73" value="" style="endArrow=open;strokeColor=#000000;endFill=1;rounded=0;entryX=1;entryY=0.5;entryDx=0;entryDy=0;exitX=0;exitY=0.25;exitDx=0;exitDy=0;" parent="qAhr7touPCSqE8SBAthT-41" source="qAhr7touPCSqE8SBAthT-60" target="qAhr7touPCSqE8SBAthT-47" edge="1">
          <mxGeometry relative="1" as="geometry">
            <mxPoint x="540" y="190" as="sourcePoint" />
            <mxPoint x="335" y="245" as="targetPoint" />
            <Array as="points" />
          </mxGeometry>
        </mxCell>
        <mxCell id="qAhr7touPCSqE8SBAthT-74" value="" style="endArrow=open;strokeColor=#000000;endFill=1;rounded=0;exitX=0.5;exitY=1;exitDx=0;exitDy=0;entryX=0;entryY=0.5;entryDx=0;entryDy=0;" parent="qAhr7touPCSqE8SBAthT-41" source="qAhr7touPCSqE8SBAthT-47" target="qAhr7touPCSqE8SBAthT-63" edge="1">
          <mxGeometry relative="1" as="geometry">
            <mxPoint x="280" y="270" as="sourcePoint" />
            <mxPoint x="470" y="420" as="targetPoint" />
            <Array as="points">
              <mxPoint x="115" y="380" />
            </Array>
          </mxGeometry>
        </mxCell>
        <mxCell id="qAhr7touPCSqE8SBAthT-65" value="" style="endArrow=open;strokeColor=#000000;endFill=1;rounded=0;exitX=0.5;exitY=1;exitDx=0;exitDy=0;entryX=1;entryY=0.5;entryDx=0;entryDy=0;" parent="qAhr7touPCSqE8SBAthT-41" source="qAhr7touPCSqE8SBAthT-63" target="pdXvo2BmUZ1ASP95Pkos-26" edge="1">
          <mxGeometry relative="1" as="geometry">
            <mxPoint x="574.5" y="255" as="sourcePoint" />
            <mxPoint x="380" y="410" as="targetPoint" />
            <Array as="points">
              <mxPoint x="796" y="410" />
            </Array>
          </mxGeometry>
        </mxCell>
        <mxCell id="qAhr7touPCSqE8SBAthT-76" value="" style="endArrow=open;strokeColor=#000000;endFill=1;rounded=0;exitX=0.5;exitY=1;exitDx=0;exitDy=0;entryX=0;entryY=0.5;entryDx=0;entryDy=0;" parent="qAhr7touPCSqE8SBAthT-41" source="pdXvo2BmUZ1ASP95Pkos-29" target="qAhr7touPCSqE8SBAthT-64" edge="1">
          <mxGeometry relative="1" as="geometry">
            <mxPoint x="280" y="400" as="sourcePoint" />
            <mxPoint x="620" y="540" as="targetPoint" />
            <Array as="points">
              <mxPoint x="126" y="510" />
            </Array>
          </mxGeometry>
        </mxCell>
        <mxCell id="qAhr7touPCSqE8SBAthT-78" value="" style="endArrow=open;strokeColor=#000000;endFill=1;rounded=0;exitX=1;exitY=0.5;exitDx=0;exitDy=0;entryX=0.5;entryY=0;entryDx=0;entryDy=0;" parent="qAhr7touPCSqE8SBAthT-41" source="qAhr7touPCSqE8SBAthT-49" edge="1">
          <mxGeometry relative="1" as="geometry">
            <mxPoint x="185.5" y="648" as="sourcePoint" />
            <mxPoint x="832.25" y="702" as="targetPoint" />
            <Array as="points">
              <mxPoint x="832" y="679" />
            </Array>
          </mxGeometry>
        </mxCell>
        <mxCell id="qAhr7touPCSqE8SBAthT-79" value="" style="endArrow=open;strokeColor=#000000;endFill=1;rounded=0;exitX=0;exitY=0.5;exitDx=0;exitDy=0;entryX=1;entryY=0.5;entryDx=0;entryDy=0;" parent="qAhr7touPCSqE8SBAthT-41" source="qAhr7touPCSqE8SBAthT-69" target="qAhr7touPCSqE8SBAthT-51" edge="1">
          <mxGeometry relative="1" as="geometry">
            <mxPoint x="562" y="498" as="sourcePoint" />
            <mxPoint x="400" y="688" as="targetPoint" />
            <Array as="points" />
          </mxGeometry>
        </mxCell>
        <mxCell id="qAhr7touPCSqE8SBAthT-72" value="" style="endArrow=open;strokeColor=#000000;endFill=1;rounded=0;entryX=0;entryY=0.5;entryDx=0;entryDy=0;exitX=0.5;exitY=1;exitDx=0;exitDy=0;" parent="qAhr7touPCSqE8SBAthT-41" source="qAhr7touPCSqE8SBAthT-45" target="pdXvo2BmUZ1ASP95Pkos-20" edge="1">
          <mxGeometry relative="1" as="geometry">
            <Array as="points">
              <mxPoint x="95" y="210" />
            </Array>
          </mxGeometry>
        </mxCell>
        <mxCell id="pdXvo2BmUZ1ASP95Pkos-24" value="" style="endArrow=open;strokeColor=#000000;endFill=1;rounded=0;exitX=0.5;exitY=1;exitDx=0;exitDy=0;entryX=1;entryY=0.5;entryDx=0;entryDy=0;" parent="qAhr7touPCSqE8SBAthT-41" source="pdXvo2BmUZ1ASP95Pkos-21" target="pdXvo2BmUZ1ASP95Pkos-23" edge="1">
          <mxGeometry relative="1" as="geometry">
            <Array as="points">
              <mxPoint x="690" y="240" />
            </Array>
            <mxPoint x="769.5" y="227.5" as="sourcePoint" />
            <mxPoint x="334.5" y="239.5" as="targetPoint" />
          </mxGeometry>
        </mxCell>
        <mxCell id="pdXvo2BmUZ1ASP95Pkos-33" value="" style="endArrow=open;strokeColor=#000000;endFill=1;rounded=0;exitX=0.5;exitY=1;exitDx=0;exitDy=0;entryX=1;entryY=0.5;entryDx=0;entryDy=0;" parent="qAhr7touPCSqE8SBAthT-41" source="pdXvo2BmUZ1ASP95Pkos-31" target="qAhr7touPCSqE8SBAthT-48" edge="1">
          <mxGeometry relative="1" as="geometry">
            <mxPoint x="1020" y="461" as="sourcePoint" />
            <mxPoint x="580" y="490" as="targetPoint" />
            <Array as="points">
              <mxPoint x="953" y="555" />
            </Array>
          </mxGeometry>
        </mxCell>
        <mxCell id="VFh-N_FICnZy8E7-UwGf-1" value="User" style="text;strokeColor=none;align=center;fillColor=none;html=1;verticalAlign=middle;whiteSpace=wrap;rounded=0;fontStyle=1" vertex="1" parent="qAhr7touPCSqE8SBAthT-41">
          <mxGeometry x="135" width="60" height="30" as="geometry" />
        </mxCell>
        <mxCell id="pdXvo2BmUZ1ASP95Pkos-29" value="" style="rhombus;" parent="qAhr7touPCSqE8SBAthT-41" vertex="1">
          <mxGeometry x="85.5" y="440" width="80" height="40" as="geometry" />
        </mxCell>
        <mxCell id="pdXvo2BmUZ1ASP95Pkos-30" value="" style="endArrow=open;strokeColor=#000000;endFill=1;rounded=0;exitX=1;exitY=0.5;exitDx=0;exitDy=0;entryX=1;entryY=0.5;entryDx=0;entryDy=0;" parent="qAhr7touPCSqE8SBAthT-41" source="pdXvo2BmUZ1ASP95Pkos-29" edge="1">
          <mxGeometry relative="1" as="geometry">
            <mxPoint x="155" y="465" as="sourcePoint" />
            <mxPoint x="665.5" y="350.5" as="targetPoint" />
            <Array as="points">
              <mxPoint x="980" y="460" />
              <mxPoint x="980" y="351" />
            </Array>
          </mxGeometry>
        </mxCell>
        <mxCell id="VFh-N_FICnZy8E7-UwGf-3" value="" style="endArrow=open;strokeColor=#000000;endFill=1;rounded=0;exitX=0.5;exitY=1;exitDx=0;exitDy=0;entryX=0.5;entryY=0;entryDx=0;entryDy=0;" edge="1" parent="qAhr7touPCSqE8SBAthT-41" source="pdXvo2BmUZ1ASP95Pkos-26" target="pdXvo2BmUZ1ASP95Pkos-29">
          <mxGeometry relative="1" as="geometry">
            <mxPoint x="506" y="285" as="sourcePoint" />
            <mxPoint x="556" y="285" as="targetPoint" />
          </mxGeometry>
        </mxCell>
        <mxCell id="VFh-N_FICnZy8E7-UwGf-5" value="" style="endArrow=open;strokeColor=#000000;endFill=1;rounded=0;exitX=0.5;exitY=1;exitDx=0;exitDy=0;entryX=0;entryY=0.5;entryDx=0;entryDy=0;" edge="1" parent="qAhr7touPCSqE8SBAthT-41" source="qAhr7touPCSqE8SBAthT-48" target="qAhr7touPCSqE8SBAthT-66">
          <mxGeometry relative="1" as="geometry">
            <mxPoint x="136" y="490" as="sourcePoint" />
            <mxPoint x="621" y="518" as="targetPoint" />
            <Array as="points">
              <mxPoint x="106" y="602" />
            </Array>
          </mxGeometry>
        </mxCell>
        <mxCell id="VFh-N_FICnZy8E7-UwGf-6" value="" style="endArrow=open;strokeColor=#000000;endFill=1;rounded=0;exitX=0.5;exitY=1;exitDx=0;exitDy=0;entryX=0.5;entryY=0;entryDx=0;entryDy=0;" edge="1" parent="qAhr7touPCSqE8SBAthT-41" source="qAhr7touPCSqE8SBAthT-66" target="qAhr7touPCSqE8SBAthT-49">
          <mxGeometry relative="1" as="geometry">
            <mxPoint x="146" y="500" as="sourcePoint" />
            <mxPoint x="120" y="650" as="targetPoint" />
            <Array as="points">
              <mxPoint x="707" y="630" />
              <mxPoint x="106" y="630" />
            </Array>
          </mxGeometry>
        </mxCell>
        <mxCell id="VFh-N_FICnZy8E7-UwGf-7" value="Yes" style="text;strokeColor=none;align=center;fillColor=none;html=1;verticalAlign=middle;whiteSpace=wrap;rounded=0;fontStyle=0" vertex="1" parent="qAhr7touPCSqE8SBAthT-41">
          <mxGeometry x="115.5" y="480" width="44.5" height="20" as="geometry" />
        </mxCell>
        <mxCell id="VFh-N_FICnZy8E7-UwGf-8" value="No" style="text;strokeColor=none;align=center;fillColor=none;html=1;verticalAlign=middle;whiteSpace=wrap;rounded=0;fontStyle=0" vertex="1" parent="qAhr7touPCSqE8SBAthT-41">
          <mxGeometry x="165.5" y="440" width="44.5" height="20" as="geometry" />
        </mxCell>
      </root>
    </mxGraphModel>
  </diagram>
</mxfile>
